<?xml version="1.0" encoding="UTF-8" standalone="no"?><!DOCTYPE svg PUBLIC "-//W3C//DTD SVG 1.1//EN" "http://www.w3.org/Graphics/SVG/1.1/DTD/svg11.dtd"><svg width="100%" height="100%" viewBox="0 0 900 900" version="1.1" xmlns="http://www.w3.org/2000/svg" xmlns:xlink="http://www.w3.org/1999/xlink" xml:space="preserve" xmlns:serif="http://www.serif.com/" style="fill-rule:evenodd;clip-rule:evenodd;stroke-linejoin:round;stroke-miterlimit:2;"><circle cx="450" cy="450" r="450" style="fill:#2f284f;"/><path d="M187.924,432.707l-0,118.429c-0,54.462 68.751,98.611 153.56,98.611l0,-118.426c0,-54.463 -68.75,-98.614 -153.56,-98.614" style="fill:#dccaca;fill-rule:nonzero;"/><path d="M368.352,293.593l-8.788,201.65l-6.816,156.378c92.279,-1.241 168.076,-66.067 171.699,-149.19l8.788,-201.652l6.816,-156.379c-92.279,1.242 -168.077,66.067 -171.699,149.193" style="fill:#dccaca;fill-rule:nonzero;"/><path d="M709.81,463.664l1.279,112.609l0.987,87.327c-91.495,-11.829 -164.294,-56.841 -164.821,-103.263l-1.278,-112.609l-0.989,-87.327c91.495,11.828 164.296,56.839 164.822,103.263" style="fill:#e28d27;fill-rule:nonzero;"/></svg>